<svg width="20" height="21" viewBox="0 0 20 21" fill="none" xmlns="http://www.w3.org/2000/svg">
<path d="M1.36038 11.8604H8.63962V19.1396C8.63962 19.8795 9.24821 20.5 10 20.5C10.7518 20.5 11.3604 19.8795 11.3604 19.1396V11.8604H18.6396C19.3795 11.8604 20 11.2518 20 10.5C20 9.74821 19.3795 9.13962 18.6396 9.13962H11.3604V1.86038C11.3604 1.12053 10.7518 0.5 10 0.5C9.24821 0.5 8.63962 1.12053 8.63962 1.86038V9.13962H1.36038C0.620525 9.13962 0 9.74821 0 10.5C0 11.2518 0.620525 11.8604 1.36038 11.8604Z" fill="url(#paint0_linear_1_436)"/>
<defs>
<linearGradient id="paint0_linear_1_436" x1="0.384615" y1="11.2692" x2="19.3079" y2="11.1308" gradientUnits="userSpaceOnUse">
<stop stop-color="#CC46FF"/>
<stop offset="1" stop-color="#4659FF"/>
</linearGradient>
</defs>
</svg>
